<?xml version="1.0" encoding="UTF-8"?>
<svg id="Layer_1" data-name="Layer 1" xmlns="http://www.w3.org/2000/svg" viewBox="0 0 725.4 786.25">
  <defs>
    <style>
      .cls-1 {
        fill: #275e60;
      }

      .cls-2 {
        fill: #e78733;
      }
    </style>
  </defs>
  <g>
    <path class="cls-2" d="M260.84,536.01v.85c-31.59-17.23-74.04-35.82-126.3-47.13-23.79-5.17-45.98-8.01-65.98-9.43V218.29c3.76.74,7.81,1.69,12.08,2.92,4.09,1.18,7.86,2.46,11.31,3.77v211.12c32.33,7.38,80.58,23.31,127.41,60.32,16.68,13.18,30.35,26.81,41.47,39.59Z"/>
    <path class="cls-2" d="M477.62,217.44v262.02c-20,1.42-42.18,4.27-65.98,9.43-52.24,11.31-94.7,29.9-126.29,47.12-.12-.21-.23-.4-.36-.6-18.86-29.66-35.86-52.58-46.77-65.38-20.66-24.22-41.35-43.48-59.55-58.43V132.62c14.91,6.16,54.94,25.04,82.17,69.74,18.98,31.16,23.36,61.07,24.51,77.29,18.66-14.07,47.02-32.14,84.82-45.24,43.84-15.2,82.37-17.46,107.45-16.97Z"/>
    <path class="cls-2" d="M272.15,534.12c-15.06-17.03-34.32-36.07-58.44-54.67-37.7-29.08-74.33-47.12-102.9-58.44V151.47c7.38,2.1,15.26,4.66,23.52,7.79,9.34,3.54,17.84,7.3,25.49,11.06v241.28c22.26,15.07,50.11,37.5,76.51,69.75,15.22,18.59,26.88,36.69,35.82,52.78Z"/>
    <path class="cls-1" d="M608.35,47.54c-69.34-64.83-203.27-64.04-266.96,6.58-6.49,7.21-50.83,56.37-36.25,118.66,11.09,47.34,49.25,72.43,59.2,78.58,1.36,5.65,2.86,15.42.11,26.88-5.22,21.96-22.03,33.48-26.36,36.25,21.89-6.49,43.87-13.09,65.92-19.76,13.13-3.99,26.22-7.98,39.29-11.98,18.94,4.13,60.5,10.34,105.73-7.8,46.82-18.8,105.57-66.96,105.46-131.84-.09-52.51-38.7-88.63-46.14-95.57ZM416.35,171.55c-10.53,0-19.05-8.55-19.05-19.08s8.53-19.05,19.05-19.05,19.05,8.53,19.05,19.05-8.53,19.08-19.05,19.08ZM480.21,171.55c-10.53,0-19.05-8.55-19.05-19.08s8.53-19.05,19.05-19.05,19.05,8.53,19.05,19.05-8.53,19.08-19.05,19.08ZM544.06,171.55c-10.53,0-19.05-8.55-19.05-19.08s8.53-19.05,19.05-19.05,19.05,8.53,19.05,19.05-8.53,19.08-19.05,19.08Z"/>
  </g>
  <g>
    <g>
      <rect class="cls-2" x="2" y="690.04" width="33.73" height="96.2"/>
      <polygon class="cls-2" points="101.64 654.77 142.98 654.77 142.98 786.25 176.83 786.25 176.83 654.77 218.09 654.77 218.09 622.07 101.64 622.07 101.64 654.77"/>
      <polygon class="cls-2" points="284 786.25 385.25 786.25 385.25 753.45 317.75 753.45 317.75 719.54 375.67 719.54 375.67 686.64 317.75 686.64 317.75 654.56 385.25 654.56 385.25 622.07 284 622.07 284 786.25"/>
      <polygon class="cls-2" points="490.74 622.07 456.99 622.07 456.99 786.25 558.24 786.25 558.24 753.45 490.74 753.45 490.74 622.07"/>
      <polygon class="cls-2" points="657.9 753.45 657.9 622.07 624.14 622.07 624.14 786.25 725.4 786.25 725.4 753.45 657.9 753.45"/>
    </g>
    <polygon class="cls-1" points="33.73 672.86 33.73 637.9 0 672.86 33.73 672.86"/>
  </g>
  <g>
    <path class="cls-1" d="M589.45,427.72h-1.07l-54.42,108.61h19.66l7.88-16.18h54.76l7.89,16.18h19.66l-54.37-108.61h.01ZM568.57,505.82l20.35-41.58,20.3,41.58h-40.65Z"/>
    <g>
      <polygon class="cls-2" points="656.62 429.87 656.62 452.23 674.77 452.23 656.62 429.87"/>
      <rect class="cls-1" x="656.62" y="473.74" width="18.15" height="62.6"/>
    </g>
  </g>
</svg>